<svg xmlns="http://www.w3.org/2000/svg" xmlns:xlink="http://www.w3.org/1999/xlink" width="100" zoomAndPan="magnify" viewBox="0 0 75.119995 83.04" height="100" preserveAspectRatio="xMidYMid meet" version="1.0"><defs><clipPath id="e64f1f2be1"><path d="M 12.511719 12.515625 L 61.4375 12.515625 L 61.4375 61.445312 L 12.511719 61.445312 Z M 12.511719 12.515625 " clip-rule="nonzero"/></clipPath></defs><g clip-path="url(#e64f1f2be1)"><path fill="#f9cd14" d="M 22.761719 37.859375 L 17.191406 37.859375 C 16.863281 38.796875 15.96875 39.472656 14.917969 39.472656 C 13.589844 39.472656 12.511719 38.394531 12.511719 37.066406 C 12.511719 35.738281 13.589844 34.660156 14.917969 34.660156 C 15.96875 34.660156 16.863281 35.335938 17.191406 36.273438 L 22.761719 36.273438 C 22.746094 36.539062 22.738281 36.800781 22.738281 37.066406 C 22.738281 37.332031 22.746094 37.597656 22.761719 37.859375 Z M 15.738281 37.066406 C 15.738281 36.613281 15.371094 36.246094 14.917969 36.246094 C 14.464844 36.246094 14.09375 36.613281 14.09375 37.066406 C 14.09375 37.519531 14.464844 37.890625 14.917969 37.890625 C 15.371094 37.890625 15.738281 37.519531 15.738281 37.066406 Z M 23.214844 33.386719 L 20.953125 33.386719 C 20.625 34.324219 19.730469 35 18.679688 35 C 17.351562 35 16.273438 33.921875 16.273438 32.59375 C 16.273438 31.265625 17.351562 30.1875 18.679688 30.1875 C 19.730469 30.1875 20.625 30.863281 20.953125 31.800781 L 23.738281 31.800781 C 23.535156 32.316406 23.359375 32.84375 23.214844 33.386719 Z M 19.5 32.59375 C 19.5 32.140625 19.132812 31.769531 18.679688 31.769531 C 18.226562 31.769531 17.855469 32.140625 17.855469 32.59375 C 17.855469 33.046875 18.226562 33.417969 18.679688 33.417969 C 19.132812 33.417969 19.5 33.046875 19.5 32.59375 Z M 31.796875 23.742188 L 31.796875 20.957031 C 30.855469 20.628906 30.179688 19.734375 30.179688 18.683594 C 30.179688 17.355469 31.257812 16.277344 32.585938 16.277344 C 33.914062 16.277344 34.992188 17.355469 34.992188 18.683594 C 34.992188 19.734375 34.320312 20.628906 33.378906 20.957031 L 33.378906 23.222656 C 32.839844 23.367188 32.308594 23.539062 31.796875 23.742188 Z M 32.585938 19.507812 C 33.042969 19.507812 33.410156 19.140625 33.410156 18.683594 C 33.410156 18.230469 33.042969 17.863281 32.585938 17.863281 C 32.132812 17.863281 31.765625 18.230469 31.765625 18.683594 C 31.765625 19.140625 32.132812 19.507812 32.585938 19.507812 Z M 36.269531 22.765625 L 36.269531 17.195312 C 35.328125 16.867188 34.65625 15.972656 34.65625 14.921875 C 34.65625 13.59375 35.734375 12.515625 37.0625 12.515625 C 38.390625 12.515625 39.46875 13.59375 39.46875 14.921875 C 39.46875 15.972656 38.792969 16.867188 37.851562 17.195312 L 37.851562 22.765625 C 37.589844 22.753906 37.328125 22.746094 37.0625 22.746094 C 36.796875 22.746094 36.53125 22.753906 36.269531 22.765625 Z M 37.0625 15.746094 C 37.515625 15.746094 37.882812 15.378906 37.882812 14.921875 C 37.882812 14.46875 37.515625 14.101562 37.0625 14.101562 C 36.605469 14.101562 36.238281 14.46875 36.238281 14.921875 C 36.238281 15.378906 36.605469 15.746094 37.0625 15.746094 Z M 40.742188 23.222656 L 40.742188 20.957031 C 39.804688 20.628906 39.128906 19.734375 39.128906 18.683594 C 39.128906 17.355469 40.207031 16.277344 41.535156 16.277344 C 42.863281 16.277344 43.941406 17.355469 43.941406 18.683594 C 43.941406 19.734375 43.265625 20.628906 42.328125 20.957031 L 42.328125 23.742188 C 41.8125 23.539062 41.285156 23.367188 40.742188 23.222656 Z M 41.535156 19.507812 C 41.988281 19.507812 42.355469 19.140625 42.355469 18.683594 C 42.355469 18.230469 41.988281 17.863281 41.535156 17.863281 C 41.082031 17.863281 40.710938 18.230469 40.710938 18.683594 C 40.710938 19.140625 41.082031 19.507812 41.535156 19.507812 Z M 50.382812 31.800781 L 53.167969 31.800781 C 53.496094 30.863281 54.390625 30.1875 55.441406 30.1875 C 56.769531 30.1875 57.847656 31.265625 57.847656 32.59375 C 57.847656 33.921875 56.769531 35 55.441406 35 C 54.390625 35 53.496094 34.324219 53.167969 33.386719 L 50.90625 33.386719 C 50.761719 32.84375 50.585938 32.316406 50.382812 31.800781 Z M 54.621094 32.59375 C 54.621094 33.046875 54.988281 33.417969 55.441406 33.417969 C 55.898438 33.417969 56.265625 33.046875 56.265625 32.59375 C 56.265625 32.140625 55.898438 31.769531 55.441406 31.769531 C 54.988281 31.769531 54.621094 32.140625 54.621094 32.59375 Z M 51.363281 36.273438 L 56.933594 36.273438 C 57.257812 35.335938 58.152344 34.660156 59.203125 34.660156 C 60.53125 34.660156 61.609375 35.738281 61.609375 37.066406 C 61.609375 38.394531 60.53125 39.472656 59.203125 39.472656 C 58.152344 39.472656 57.257812 38.796875 56.933594 37.859375 L 51.363281 37.859375 C 51.375 37.597656 51.382812 37.332031 51.382812 37.066406 C 51.382812 36.800781 51.375 36.539062 51.363281 36.273438 Z M 58.382812 37.066406 C 58.382812 37.519531 58.75 37.890625 59.203125 37.890625 C 59.660156 37.890625 60.027344 37.519531 60.027344 37.066406 C 60.027344 36.613281 59.660156 36.246094 59.203125 36.246094 C 58.75 36.246094 58.382812 36.613281 58.382812 37.066406 Z M 50.90625 40.75 L 53.167969 40.75 C 53.496094 39.808594 54.390625 39.132812 55.441406 39.132812 C 56.769531 39.132812 57.847656 40.210938 57.847656 41.539062 C 57.847656 42.867188 56.769531 43.945312 55.441406 43.945312 C 54.390625 43.945312 53.496094 43.273438 53.167969 42.332031 L 50.382812 42.332031 C 50.585938 41.820312 50.761719 41.289062 50.90625 40.75 Z M 54.621094 41.539062 C 54.621094 41.996094 54.988281 42.363281 55.441406 42.363281 C 55.898438 42.363281 56.265625 41.996094 56.265625 41.539062 C 56.265625 41.085938 55.898438 40.71875 55.441406 40.71875 C 54.988281 40.71875 54.621094 41.085938 54.621094 41.539062 Z M 42.328125 50.390625 L 42.328125 53.175781 C 43.265625 53.503906 43.941406 54.398438 43.941406 55.449219 C 43.941406 56.777344 42.863281 57.855469 41.535156 57.855469 C 40.207031 57.855469 39.128906 56.777344 39.128906 55.449219 C 39.128906 54.398438 39.804688 53.503906 40.742188 53.175781 L 40.742188 50.910156 C 41.285156 50.769531 41.8125 50.59375 42.328125 50.390625 Z M 41.535156 54.625 C 41.082031 54.625 40.710938 54.996094 40.710938 55.449219 C 40.710938 55.902344 41.082031 56.269531 41.535156 56.269531 C 41.988281 56.269531 42.355469 55.902344 42.355469 55.449219 C 42.355469 54.996094 41.988281 54.625 41.535156 54.625 Z M 37.851562 51.367188 L 37.851562 56.9375 C 38.792969 57.265625 39.46875 58.160156 39.46875 59.210938 C 39.46875 60.539062 38.390625 61.617188 37.0625 61.617188 C 35.734375 61.617188 34.65625 60.539062 34.65625 59.210938 C 34.65625 58.160156 35.328125 57.265625 36.269531 56.9375 L 36.269531 51.367188 C 36.53125 51.382812 36.796875 51.390625 37.0625 51.390625 C 37.328125 51.390625 37.589844 51.382812 37.851562 51.367188 Z M 37.0625 58.386719 C 36.605469 58.386719 36.238281 58.757812 36.238281 59.210938 C 36.238281 59.664062 36.605469 60.035156 37.0625 60.035156 C 37.515625 60.035156 37.882812 59.664062 37.882812 59.210938 C 37.882812 58.757812 37.515625 58.386719 37.0625 58.386719 Z M 33.378906 50.910156 L 33.378906 53.175781 C 34.320312 53.503906 34.992188 54.398438 34.992188 55.449219 C 34.992188 56.777344 33.914062 57.855469 32.585938 57.855469 C 31.257812 57.855469 30.179688 56.777344 30.179688 55.449219 C 30.179688 54.398438 30.855469 53.503906 31.796875 53.175781 L 31.796875 50.390625 C 32.308594 50.59375 32.839844 50.769531 33.378906 50.910156 Z M 32.585938 54.625 C 32.132812 54.625 31.765625 54.996094 31.765625 55.449219 C 31.765625 55.902344 32.132812 56.269531 32.585938 56.269531 C 33.042969 56.269531 33.410156 55.902344 33.410156 55.449219 C 33.410156 54.996094 33.042969 54.625 32.585938 54.625 Z M 23.738281 42.332031 L 20.953125 42.332031 C 20.625 43.273438 19.730469 43.945312 18.679688 43.945312 C 17.351562 43.945312 16.273438 42.867188 16.273438 41.539062 C 16.273438 40.210938 17.351562 39.132812 18.679688 39.132812 C 19.730469 39.132812 20.625 39.808594 20.953125 40.75 L 23.214844 40.75 C 23.359375 41.289062 23.535156 41.820312 23.738281 42.332031 Z M 19.5 41.539062 C 19.5 41.085938 19.132812 40.71875 18.679688 40.71875 C 18.226562 40.71875 17.855469 41.085938 17.855469 41.539062 C 17.855469 41.996094 18.226562 42.363281 18.679688 42.363281 C 19.132812 42.363281 19.5 41.996094 19.5 41.539062 Z M 48.5 45.6875 L 55.589844 52.78125 C 56.421875 53.613281 56.421875 54.957031 55.589844 55.789062 L 55.132812 56.246094 C 54.304688 57.074219 52.957031 57.074219 52.128906 56.246094 L 44.921875 49.039062 C 46.296875 48.136719 47.507812 47 48.5 45.6875 Z M 37.0625 24.328125 C 44.097656 24.328125 49.800781 30.03125 49.800781 37.066406 C 49.800781 44.101562 44.097656 49.804688 37.0625 49.804688 C 30.023438 49.804688 24.324219 44.101562 24.324219 37.066406 C 24.324219 30.03125 30.023438 24.328125 37.0625 24.328125 Z M 29.933594 37.859375 L 29.933594 39.175781 L 27.992188 39.175781 C 27.554688 39.175781 27.199219 39.527344 27.199219 39.964844 C 27.199219 40.402344 27.554688 40.757812 27.992188 40.757812 L 29.933594 40.757812 L 29.933594 42.8125 C 29.933594 43.578125 30.550781 44.195312 31.3125 44.195312 L 33.371094 44.195312 L 33.371094 46.136719 C 33.371094 46.574219 33.726562 46.925781 34.160156 46.925781 C 34.597656 46.925781 34.953125 46.574219 34.953125 46.136719 L 34.953125 44.195312 L 36.269531 44.195312 L 36.269531 47.398438 C 36.269531 47.835938 36.625 48.191406 37.0625 48.191406 C 37.496094 48.191406 37.851562 47.835938 37.851562 47.398438 L 37.851562 44.195312 L 39.167969 44.195312 L 39.167969 46.136719 C 39.167969 46.574219 39.523438 46.925781 39.960938 46.925781 C 40.398438 46.925781 40.75 46.574219 40.75 46.136719 L 40.75 44.195312 L 42.808594 44.195312 C 43.570312 44.195312 44.1875 43.578125 44.1875 42.8125 L 44.1875 40.757812 L 46.128906 40.757812 C 46.566406 40.757812 46.921875 40.402344 46.921875 39.964844 C 46.921875 39.527344 46.566406 39.175781 46.128906 39.175781 L 44.1875 39.175781 L 44.1875 37.859375 L 47.394531 37.859375 C 47.832031 37.859375 48.183594 37.503906 48.183594 37.066406 C 48.183594 36.628906 47.832031 36.273438 47.394531 36.273438 L 44.1875 36.273438 L 44.1875 34.960938 L 46.128906 34.960938 C 46.566406 34.960938 46.921875 34.605469 46.921875 34.167969 C 46.921875 33.730469 46.566406 33.375 46.128906 33.375 L 44.1875 33.375 L 44.1875 31.320312 C 44.1875 30.558594 43.570312 29.9375 42.808594 29.9375 L 40.75 29.9375 L 40.75 28 C 40.75 27.5625 40.398438 27.207031 39.960938 27.207031 C 39.523438 27.207031 39.167969 27.5625 39.167969 28 L 39.167969 29.9375 L 37.851562 29.9375 L 37.851562 26.734375 C 37.851562 26.296875 37.496094 25.941406 37.0625 25.941406 C 36.625 25.941406 36.269531 26.296875 36.269531 26.734375 L 36.269531 29.9375 L 34.953125 29.9375 L 34.953125 28 C 34.953125 27.5625 34.597656 27.207031 34.160156 27.207031 C 33.726562 27.207031 33.371094 27.5625 33.371094 28 L 33.371094 29.9375 L 31.3125 29.9375 C 30.550781 29.9375 29.933594 30.558594 29.933594 31.320312 L 29.933594 33.375 L 27.992188 33.375 C 27.554688 33.375 27.199219 33.730469 27.199219 34.167969 C 27.199219 34.605469 27.554688 34.960938 27.992188 34.960938 L 29.933594 34.960938 L 29.933594 36.273438 L 26.730469 36.273438 C 26.292969 36.273438 25.9375 36.628906 25.9375 37.066406 C 25.9375 37.503906 26.292969 37.859375 26.730469 37.859375 Z M 31.515625 31.523438 L 42.605469 31.523438 L 42.605469 42.613281 L 31.515625 42.613281 Z M 32.585938 37.96875 L 34.417969 37.96875 C 34.710938 37.96875 34.980469 37.808594 35.117188 37.546875 L 36.03125 35.816406 L 36.953125 40.851562 C 37.015625 41.195312 37.300781 41.460938 37.648438 41.496094 C 37.996094 41.535156 38.328125 41.339844 38.464844 41.015625 L 39.738281 37.96875 C 39.738281 37.96875 41.535156 37.96875 41.535156 37.96875 C 41.972656 37.96875 42.328125 37.613281 42.328125 37.179688 C 42.328125 36.742188 41.972656 36.386719 41.535156 36.386719 L 39.210938 36.386719 C 38.890625 36.386719 38.601562 36.578125 38.480469 36.871094 L 38.03125 37.941406 L 37.175781 33.28125 C 37.117188 32.949219 36.851562 32.695312 36.519531 32.640625 C 36.183594 32.589844 35.855469 32.757812 35.699219 33.054688 L 33.9375 36.386719 L 32.585938 36.386719 C 32.148438 36.386719 31.796875 36.742188 31.796875 37.179688 C 31.796875 37.613281 32.148438 37.96875 32.585938 37.96875 Z M 32.585938 37.96875 " fill-opacity="1" fill-rule="evenodd"/></g></svg>