<svg xmlns="http://www.w3.org/2000/svg" xmlns:xlink="http://www.w3.org/1999/xlink" width="100" zoomAndPan="magnify" viewBox="0 0 75.119995 83.04" height="100" preserveAspectRatio="xMidYMid meet" version="1.0"><defs><clipPath id="1b4a9aa044"><path d="M 12.132812 11.265625 L 39 11.265625 L 39 63 L 12.132812 63 Z M 12.132812 11.265625 " clip-rule="nonzero"/></clipPath><clipPath id="776b6fabb2"><path d="M 26 22 L 61.800781 22 L 61.800781 52 L 26 52 Z M 26 22 " clip-rule="nonzero"/></clipPath></defs><path fill="#f9cd14" d="M 37.011719 33.328125 C 36.882812 32.992188 36.566406 32.769531 36.203125 32.769531 C 35.84375 32.769531 35.523438 32.992188 35.394531 33.328125 L 32.816406 40.207031 C 32.652344 40.652344 32.878906 41.144531 33.324219 41.316406 C 33.769531 41.480469 34.261719 41.253906 34.433594 40.808594 L 34.871094 39.648438 L 37.546875 39.648438 L 37.984375 40.808594 C 38.113281 41.152344 38.441406 41.367188 38.792969 41.367188 C 38.894531 41.367188 39 41.351562 39.09375 41.316406 C 39.539062 41.152344 39.761719 40.652344 39.589844 40.207031 Z M 35.515625 37.929688 L 36.214844 36.078125 L 36.910156 37.929688 Z M 35.515625 37.929688 " fill-opacity="1" fill-rule="nonzero"/><path fill="#f9cd14" d="M 41.363281 32.769531 C 40.890625 32.769531 40.503906 33.15625 40.503906 33.628906 L 40.503906 40.507812 C 40.503906 40.980469 40.890625 41.367188 41.363281 41.367188 C 41.835938 41.367188 42.222656 40.980469 42.222656 40.507812 L 42.222656 33.628906 C 42.222656 33.15625 41.835938 32.769531 41.363281 32.769531 Z M 41.363281 32.769531 " fill-opacity="1" fill-rule="nonzero"/><g clip-path="url(#1b4a9aa044)"><path fill="#f9cd14" d="M 37.921875 51.683594 C 29.867188 51.683594 23.308594 45.125 23.308594 37.066406 C 23.308594 29.011719 29.867188 22.453125 37.921875 22.453125 C 38.398438 22.453125 38.785156 22.066406 38.785156 21.59375 L 38.785156 12.136719 C 38.785156 11.664062 38.398438 11.277344 37.921875 11.277344 L 33.394531 11.277344 C 32.996094 11.277344 32.652344 11.542969 32.558594 11.929688 L 31.328125 16.863281 C 30.28125 17.207031 29.265625 17.621094 28.304688 18.109375 L 23.945312 15.496094 C 23.609375 15.289062 23.171875 15.351562 22.894531 15.625 L 16.492188 22.03125 C 16.214844 22.304688 16.15625 22.746094 16.363281 23.082031 L 18.976562 27.4375 C 18.484375 28.402344 18.0625 29.417969 17.726562 30.464844 L 12.792969 31.695312 C 12.40625 31.789062 12.140625 32.132812 12.140625 32.527344 L 12.140625 41.589844 C 12.140625 41.984375 12.40625 42.328125 12.792969 42.425781 L 17.726562 43.652344 C 18.074219 44.703125 18.484375 45.71875 18.976562 46.679688 L 16.363281 51.039062 C 16.15625 51.375 16.214844 51.8125 16.492188 52.085938 L 22.894531 58.492188 C 23.171875 58.769531 23.609375 58.828125 23.945312 58.621094 L 28.304688 56.007812 C 29.265625 56.5 30.28125 56.917969 31.328125 57.253906 L 32.558594 62.191406 C 32.652344 62.578125 32.996094 62.84375 33.394531 62.84375 L 37.921875 62.84375 C 38.398438 62.84375 38.785156 62.457031 38.785156 61.984375 L 38.785156 52.527344 C 38.785156 52.054688 38.398438 51.667969 37.921875 51.667969 Z M 37.0625 61.140625 L 34.0625 61.140625 L 32.878906 56.386719 C 32.800781 56.09375 32.578125 55.863281 32.292969 55.765625 C 31.027344 55.390625 29.808594 54.890625 28.679688 54.28125 C 28.414062 54.132812 28.089844 54.144531 27.832031 54.296875 L 23.636719 56.816406 L 18.175781 51.355469 L 20.695312 47.160156 C 20.847656 46.902344 20.859375 46.578125 20.710938 46.308594 C 20.101562 45.183594 19.601562 43.964844 19.222656 42.699219 C 19.136719 42.40625 18.90625 42.183594 18.605469 42.113281 L 13.851562 40.929688 L 13.851562 33.207031 L 18.605469 32.023438 C 18.898438 31.945312 19.128906 31.71875 19.222656 31.4375 C 19.601562 30.171875 20.101562 28.953125 20.710938 27.824219 C 20.859375 27.558594 20.847656 27.234375 20.695312 26.976562 L 18.175781 22.777344 L 23.636719 17.320312 L 27.832031 19.839844 C 28.089844 19.992188 28.414062 20.003906 28.679688 19.855469 C 29.808594 19.246094 31.027344 18.746094 32.292969 18.367188 C 32.585938 18.28125 32.808594 18.050781 32.878906 17.75 L 34.0625 12.996094 L 37.0625 12.996094 L 37.0625 20.757812 C 28.457031 21.207031 21.589844 28.351562 21.589844 37.066406 C 21.589844 45.785156 28.457031 52.929688 37.0625 53.378906 Z M 37.0625 61.140625 " fill-opacity="1" fill-rule="nonzero"/></g><g clip-path="url(#776b6fabb2)"><path fill="#f9cd14" d="M 58.558594 33.628906 C 56.957031 33.628906 55.625 34.730469 55.238281 36.207031 L 46.519531 36.207031 L 46.519531 32.769531 L 49.960938 32.769531 C 50.199219 32.769531 50.433594 32.667969 50.597656 32.484375 L 53.742188 29.039062 C 54.164062 29.21875 54.628906 29.332031 55.117188 29.332031 C 57.019531 29.332031 58.558594 27.792969 58.558594 25.890625 C 58.558594 23.992188 57.019531 22.453125 55.117188 22.453125 C 53.21875 22.453125 51.679688 23.992188 51.679688 25.890625 C 51.679688 26.675781 51.953125 27.386719 52.394531 27.964844 L 49.582031 31.050781 L 46.519531 31.050781 L 46.519531 29.332031 C 46.519531 28.859375 46.132812 28.472656 45.660156 28.472656 L 43.941406 28.472656 L 43.941406 26.75 C 43.941406 26.277344 43.554688 25.890625 43.082031 25.890625 C 42.609375 25.890625 42.222656 26.277344 42.222656 26.75 L 42.222656 28.472656 L 38.785156 28.472656 L 38.785156 26.75 C 38.785156 26.277344 38.398438 25.890625 37.921875 25.890625 C 37.449219 25.890625 37.0625 26.277344 37.0625 26.75 L 37.0625 28.472656 L 33.625 28.472656 L 33.625 26.75 C 33.625 26.277344 33.238281 25.890625 32.765625 25.890625 C 32.292969 25.890625 31.90625 26.277344 31.90625 26.75 L 31.90625 28.472656 L 30.1875 28.472656 C 29.714844 28.472656 29.328125 28.859375 29.328125 29.332031 L 29.328125 31.050781 L 27.605469 31.050781 C 27.132812 31.050781 26.746094 31.4375 26.746094 31.910156 C 26.746094 32.382812 27.132812 32.769531 27.605469 32.769531 L 29.328125 32.769531 L 29.328125 36.207031 L 27.605469 36.207031 C 27.132812 36.207031 26.746094 36.59375 26.746094 37.066406 C 26.746094 37.542969 27.132812 37.929688 27.605469 37.929688 L 29.328125 37.929688 L 29.328125 41.367188 L 27.605469 41.367188 C 27.132812 41.367188 26.746094 41.753906 26.746094 42.226562 C 26.746094 42.699219 27.132812 43.085938 27.605469 43.085938 L 29.328125 43.085938 L 29.328125 44.804688 C 29.328125 45.277344 29.714844 45.664062 30.1875 45.664062 L 31.90625 45.664062 L 31.90625 47.386719 C 31.90625 47.859375 32.292969 48.246094 32.765625 48.246094 C 33.238281 48.246094 33.625 47.859375 33.625 47.386719 L 33.625 45.664062 L 37.0625 45.664062 L 37.0625 47.386719 C 37.0625 47.859375 37.449219 48.246094 37.921875 48.246094 C 38.398438 48.246094 38.785156 47.859375 38.785156 47.386719 L 38.785156 45.664062 L 42.222656 45.664062 L 42.222656 47.386719 C 42.222656 47.859375 42.609375 48.246094 43.082031 48.246094 C 43.554688 48.246094 43.941406 47.859375 43.941406 47.386719 L 43.941406 45.664062 L 45.660156 45.664062 C 46.132812 45.664062 46.519531 45.277344 46.519531 44.804688 L 46.519531 43.085938 L 49.582031 43.085938 L 52.394531 46.171875 C 51.953125 46.75 51.679688 47.460938 51.679688 48.246094 C 51.679688 50.144531 53.21875 51.683594 55.117188 51.683594 C 57.019531 51.683594 58.558594 50.144531 58.558594 48.246094 C 58.558594 46.34375 57.019531 44.804688 55.117188 44.804688 C 54.628906 44.804688 54.164062 44.910156 53.742188 45.097656 L 50.597656 41.652344 C 50.433594 41.46875 50.199219 41.367188 49.960938 41.367188 L 46.519531 41.367188 L 46.519531 37.929688 L 55.238281 37.929688 C 55.625 39.40625 56.957031 40.507812 58.558594 40.507812 C 60.457031 40.507812 61.996094 38.96875 61.996094 37.066406 C 61.996094 35.167969 60.457031 33.628906 58.558594 33.628906 Z M 55.117188 24.171875 C 56.0625 24.171875 56.839844 24.945312 56.839844 25.890625 C 56.839844 26.835938 56.0625 27.609375 55.117188 27.609375 C 54.171875 27.609375 53.398438 26.835938 53.398438 25.890625 C 53.398438 24.945312 54.171875 24.171875 55.117188 24.171875 Z M 56.839844 48.246094 C 56.839844 49.191406 56.0625 49.964844 55.117188 49.964844 C 54.171875 49.964844 53.398438 49.191406 53.398438 48.246094 C 53.398438 47.300781 54.171875 46.523438 55.117188 46.523438 C 56.0625 46.523438 56.839844 47.300781 56.839844 48.246094 Z M 44.800781 43.945312 L 31.046875 43.945312 L 31.046875 30.191406 L 44.800781 30.191406 Z M 58.558594 38.789062 C 57.613281 38.789062 56.839844 38.015625 56.839844 37.066406 C 56.839844 36.121094 57.613281 35.347656 58.558594 35.347656 C 59.503906 35.347656 60.277344 36.121094 60.277344 37.066406 C 60.277344 38.015625 59.503906 38.789062 58.558594 38.789062 Z M 58.558594 38.789062 " fill-opacity="1" fill-rule="nonzero"/></g></svg>